<?xml version="1.0" encoding="UTF-8"?>
<svg xmlns="http://www.w3.org/2000/svg" xmlns:xlink="http://www.w3.org/1999/xlink" width="300px" height="143px" viewBox="0 0 299 143" version="1.1">
<g id="surface1">
<path style="stroke:none;fill-rule:nonzero;fill:rgb(5.882353%,22.352941%,23.137255%);fill-opacity:1;" d="M 124.3125 83.605469 L 110.542969 83.605469 C 108.921875 89.800781 106.75 95.257812 104.039062 99.976562 C 101.417969 104.582031 98.121094 108.765625 94.261719 112.390625 C 88.734375 117.566406 82.242188 121.386719 74.785156 123.847656 C 67.332031 126.3125 59.039062 127.542969 49.90625 127.542969 L 46.636719 127.542969 C 38.925781 127.1875 32.167969 125.738281 26.359375 123.203125 C 20.554688 120.664062 15.671875 117.3125 11.714844 113.148438 C 7.871094 109.054688 4.894531 104.226562 2.964844 98.949219 C 0.988281 93.59375 0 87.894531 0 81.855469 C 0 81.296875 0.0117188 80.828125 0.0390625 80.445312 C 0.0625 80.066406 0.0742188 79.75 0.0742188 79.496094 C 0.480469 71.019531 2.21875 63.621094 5.285156 57.300781 C 8.355469 50.980469 12.449219 45.660156 17.574219 41.347656 C 23.355469 36.472656 30.152344 32.84375 37.960938 30.457031 C 45.773438 28.074219 54.191406 26.878906 63.222656 26.878906 L 87.71875 26.878906 L 86.347656 41.804688 L 58.65625 41.804688 C 52.976562 41.804688 47.648438 42.703125 42.679688 44.507812 C 37.84375 46.230469 33.378906 48.851562 29.519531 52.234375 C 25.777344 55.46875 22.734375 59.433594 20.578125 63.886719 C 18.371094 68.402344 17.140625 73.429688 16.890625 78.960938 L 16.890625 80.5625 C 16.890625 85.382812 17.714844 89.722656 19.363281 93.582031 C 20.964844 97.375 23.363281 100.777344 26.398438 103.558594 C 29.457031 106.339844 33.023438 108.511719 36.898438 109.953125 C 40.90625 111.476562 45.367188 112.339844 50.289062 112.542969 L 52.417969 112.542969 C 58 112.558594 63.542969 111.632812 68.8125 109.800781 C 74.0625 107.972656 78.792969 104.953125 83 100.738281 C 86.5 97.238281 89.417969 92.871094 91.75 87.644531 C 94.085938 82.414062 95.605469 76.09375 96.316406 68.683594 L 100.195312 26.878906 L 117.007812 26.878906 L 113.28125 68.683594 L 125.683594 68.683594 Z M 58.277344 85.890625 C 56.761719 85.902344 55.261719 85.605469 53.863281 85.015625 C 52.523438 84.449219 51.304688 83.621094 50.289062 82.578125 C 49.269531 81.53125 48.457031 80.304688 47.890625 78.960938 C 47.304688 77.5625 47.003906 76.0625 47.015625 74.546875 C 47.003906 73.027344 47.304688 71.527344 47.890625 70.128906 C 48.453125 68.792969 49.265625 67.578125 50.289062 66.550781 C 51.320312 65.523438 52.53125 64.699219 53.863281 64.113281 C 55.253906 63.5 56.757812 63.1875 58.277344 63.199219 C 59.796875 63.1875 61.300781 63.5 62.6875 64.113281 C 64.023438 64.699219 65.234375 65.523438 66.265625 66.550781 C 67.289062 67.582031 68.117188 68.796875 68.699219 70.128906 C 69.3125 71.519531 69.625 73.023438 69.613281 74.546875 C 69.625 76.066406 69.3125 77.570312 68.699219 78.960938 C 68.109375 80.304688 67.285156 81.527344 66.265625 82.578125 C 65.246094 83.621094 64.03125 84.449219 62.6875 85.015625 C 61.292969 85.605469 59.792969 85.902344 58.277344 85.890625 Z M 145.617188 132.796875 C 145.472656 134.289062 145.035156 135.738281 144.324219 137.058594 C 143.632812 138.351562 142.703125 139.503906 141.585938 140.449219 C 140.546875 141.34375 139.34375 142.027344 138.046875 142.464844 C 136.882812 142.859375 135.660156 143.066406 134.433594 143.074219 C 134.050781 143.074219 133.671875 143.046875 133.292969 143 C 131.800781 142.855469 130.351562 142.414062 129.03125 141.703125 C 127.746094 141.019531 126.597656 140.105469 125.644531 139 C 124.746094 137.976562 124.046875 136.785156 123.589844 135.5 C 123.175781 134.339844 122.957031 133.117188 122.945312 131.882812 C 122.941406 131.5 122.96875 131.117188 123.019531 130.738281 C 123.238281 128.699219 124 126.75 125.226562 125.105469 C 126.40625 123.511719 127.980469 122.25 129.792969 121.449219 C 128.226562 120.347656 126.949219 118.886719 126.0625 117.1875 C 125.203125 115.511719 124.769531 113.835938 124.769531 112.160156 C 124.769531 111.777344 124.792969 111.398438 124.847656 111.019531 C 124.984375 109.5 125.421875 108.023438 126.140625 106.679688 C 126.824219 105.390625 127.753906 104.253906 128.878906 103.328125 C 129.925781 102.453125 131.125 101.78125 132.417969 101.347656 C 133.554688 100.957031 134.75 100.753906 135.953125 100.738281 C 136.335938 100.738281 136.71875 100.761719 137.09375 100.816406 C 138.613281 100.949219 140.089844 101.390625 141.433594 102.109375 C 142.726562 102.796875 143.875 103.730469 144.816406 104.851562 C 145.710938 105.890625 146.398438 107.089844 146.832031 108.390625 C 147.222656 109.53125 147.425781 110.726562 147.441406 111.929688 C 147.441406 112.3125 147.414062 112.695312 147.367188 113.074219 C 147.199219 115.113281 146.460938 117.066406 145.234375 118.707031 C 144.046875 120.308594 142.476562 121.59375 140.671875 122.4375 C 142.246094 123.5 143.527344 124.941406 144.398438 126.628906 C 145.261719 128.300781 145.691406 129.976562 145.691406 131.652344 C 145.695312 132.035156 145.667969 132.417969 145.617188 132.796875 Z M 137.246094 27.257812 L 154.214844 27.257812 L 150.257812 68.683594 L 162.886719 68.683594 L 161.515625 83.605469 L 120.433594 83.605469 L 121.878906 68.683594 L 132.148438 68.683594 Z M 170.796875 68.683594 L 174.679688 26.878906 L 191.492188 26.878906 L 189.589844 47.894531 C 189.488281 48.554688 189.410156 49.214844 189.359375 49.875 L 189.210938 51.855469 L 187.761719 68.683594 L 200.089844 68.683594 L 201.609375 52.996094 C 202.320312 44.925781 203.816406 37.476562 206.097656 30.648438 C 208.382812 23.820312 211.550781 17.972656 215.609375 13.097656 C 218.9375 9.042969 223.101562 5.757812 227.820312 3.464844 C 232.5625 1.15625 238.050781 0 244.289062 0 C 250.578125 0 255.5 1.066406 259.050781 3.199219 C 262.601562 5.332031 265.1875 8.277344 266.808594 12.03125 C 268.6875 16.347656 269.699219 20.445312 269.851562 24.328125 C 270.003906 28.214844 270.082031 30.992188 270.082031 32.667969 C 270.082031 37.488281 269.828125 42.640625 269.320312 48.125 L 266.046875 83.609375 L 157.179688 83.609375 L 158.472656 68.683594 Z M 250.605469 68.683594 L 251.136719 62.972656 L 252.8125 44.085938 C 253.320312 38.503906 253.597656 34.796875 253.648438 32.96875 C 253.699219 31.140625 253.722656 30.050781 253.722656 29.695312 C 253.722656 26.902344 253.445312 24.644531 252.886719 22.917969 C 252.378906 21.191406 251.746094 19.820312 250.984375 18.804688 C 250.285156 17.84375 249.375 17.046875 248.324219 16.484375 C 247.21875 15.925781 246.019531 15.574219 244.785156 15.457031 C 243.257812 15.292969 241.71875 15.21875 240.183594 15.226562 C 237.542969 15.226562 234.90625 16.152344 232.269531 18.007812 C 229.632812 19.859375 227.351562 22.539062 225.421875 26.042969 C 224.316406 28.046875 223.335938 30.117188 222.492188 32.246094 C 221.699219 34.273438 221.027344 36.347656 220.476562 38.453125 C 219.902344 40.671875 219.457031 42.921875 219.144531 45.191406 C 218.816406 47.550781 218.523438 50.128906 218.269531 52.921875 L 216.976562 68.683594 Z M 273.808594 100.738281 C 274.375 99.976562 274.882812 99.175781 275.332031 98.339844 C 275.691406 97.636719 275.921875 96.878906 276.015625 96.09375 L 282.253906 26.804688 L 298.992188 26.804688 L 292.980469 96.09375 C 292.878906 97.363281 292.625 98.316406 292.21875 98.949219 C 291.804688 99.597656 291.320312 100.195312 290.773438 100.738281 Z M 273.808594 100.738281 "/>
</g>
</svg>
